<mxfile host="app.diagrams.net" modified="2023-07-23T14:37:02.619Z" agent="Mozilla/5.0 (X11; Ubuntu; Linux x86_64; rv:109.0) Gecko/20100101 Firefox/115.0" etag="Jyf1sB8uYFv3PRBH0ROp" version="21.6.5" type="device">
  <diagram name="Page-1" id="kp_n8H7PIVV7jECsHyf7">
    <mxGraphModel dx="1667" dy="963" grid="1" gridSize="10" guides="1" tooltips="1" connect="1" arrows="1" fold="1" page="1" pageScale="1" pageWidth="850" pageHeight="1100" math="0" shadow="0">
      <root>
        <mxCell id="0" />
        <mxCell id="1" parent="0" />
        <mxCell id="RSWkiCTdMfQaUf2Nsojo-37" style="edgeStyle=orthogonalEdgeStyle;rounded=0;orthogonalLoop=1;jettySize=auto;html=1;entryX=1;entryY=0.5;entryDx=0;entryDy=0;exitX=1;exitY=0.5;exitDx=0;exitDy=0;" edge="1" parent="1" source="RSWkiCTdMfQaUf2Nsojo-38" target="RSWkiCTdMfQaUf2Nsojo-1">
          <mxGeometry relative="1" as="geometry">
            <Array as="points">
              <mxPoint x="570" y="570" />
              <mxPoint x="570" y="220" />
            </Array>
          </mxGeometry>
        </mxCell>
        <mxCell id="RSWkiCTdMfQaUf2Nsojo-10" style="edgeStyle=orthogonalEdgeStyle;rounded=0;orthogonalLoop=1;jettySize=auto;html=1;entryX=1;entryY=0.5;entryDx=0;entryDy=0;" edge="1" parent="1" source="RSWkiCTdMfQaUf2Nsojo-1" target="RSWkiCTdMfQaUf2Nsojo-4">
          <mxGeometry relative="1" as="geometry" />
        </mxCell>
        <mxCell id="RSWkiCTdMfQaUf2Nsojo-1" value="&lt;div&gt;ITP&lt;/div&gt;" style="rounded=1;whiteSpace=wrap;html=1;" vertex="1" parent="1">
          <mxGeometry x="430" y="190" width="120" height="60" as="geometry" />
        </mxCell>
        <mxCell id="RSWkiCTdMfQaUf2Nsojo-56" style="edgeStyle=orthogonalEdgeStyle;rounded=0;orthogonalLoop=1;jettySize=auto;html=1;entryX=0.5;entryY=0;entryDx=0;entryDy=0;entryPerimeter=0;" edge="1" parent="1" source="RSWkiCTdMfQaUf2Nsojo-2" target="RSWkiCTdMfQaUf2Nsojo-55">
          <mxGeometry relative="1" as="geometry">
            <Array as="points">
              <mxPoint x="120" y="220" />
              <mxPoint x="120" y="365" />
            </Array>
          </mxGeometry>
        </mxCell>
        <mxCell id="RSWkiCTdMfQaUf2Nsojo-2" value="Proof Logs" style="rounded=1;whiteSpace=wrap;html=1;" vertex="1" parent="1">
          <mxGeometry x="140" y="190" width="100" height="60" as="geometry" />
        </mxCell>
        <mxCell id="RSWkiCTdMfQaUf2Nsojo-64" style="edgeStyle=orthogonalEdgeStyle;rounded=0;orthogonalLoop=1;jettySize=auto;html=1;entryX=1;entryY=0.5;entryDx=0;entryDy=0;" edge="1" parent="1" source="RSWkiCTdMfQaUf2Nsojo-4" target="RSWkiCTdMfQaUf2Nsojo-2">
          <mxGeometry relative="1" as="geometry" />
        </mxCell>
        <mxCell id="RSWkiCTdMfQaUf2Nsojo-67" style="edgeStyle=orthogonalEdgeStyle;rounded=0;orthogonalLoop=1;jettySize=auto;html=1;exitX=0.25;exitY=1;exitDx=0;exitDy=0;entryX=0.342;entryY=-0.012;entryDx=0;entryDy=0;entryPerimeter=0;dashed=1;" edge="1" parent="1" source="RSWkiCTdMfQaUf2Nsojo-4" target="RSWkiCTdMfQaUf2Nsojo-22">
          <mxGeometry relative="1" as="geometry" />
        </mxCell>
        <mxCell id="RSWkiCTdMfQaUf2Nsojo-68" value="Reward" style="edgeLabel;html=1;align=center;verticalAlign=middle;resizable=0;points=[];" vertex="1" connectable="0" parent="RSWkiCTdMfQaUf2Nsojo-67">
          <mxGeometry x="-0.1086" y="-2" relative="1" as="geometry">
            <mxPoint x="-24" as="offset" />
          </mxGeometry>
        </mxCell>
        <mxCell id="RSWkiCTdMfQaUf2Nsojo-4" value="Proof State" style="rounded=1;whiteSpace=wrap;html=1;" vertex="1" parent="1">
          <mxGeometry x="290" y="190" width="120" height="60" as="geometry" />
        </mxCell>
        <mxCell id="RSWkiCTdMfQaUf2Nsojo-57" style="edgeStyle=orthogonalEdgeStyle;rounded=0;orthogonalLoop=1;jettySize=auto;html=1;entryX=0;entryY=0.5;entryDx=0;entryDy=0;dashed=1;" edge="1" parent="1" source="RSWkiCTdMfQaUf2Nsojo-55" target="RSWkiCTdMfQaUf2Nsojo-22">
          <mxGeometry relative="1" as="geometry" />
        </mxCell>
        <mxCell id="RSWkiCTdMfQaUf2Nsojo-55" value="Labelled Data" style="shape=cylinder3;whiteSpace=wrap;html=1;boundedLbl=1;backgroundOutline=1;size=15;" vertex="1" parent="1">
          <mxGeometry x="90" y="365" width="60" height="80" as="geometry" />
        </mxCell>
        <mxCell id="RSWkiCTdMfQaUf2Nsojo-65" style="edgeStyle=orthogonalEdgeStyle;rounded=0;orthogonalLoop=1;jettySize=auto;html=1;entryX=1;entryY=0;entryDx=0;entryDy=52.5;entryPerimeter=0;" edge="1" parent="1" source="RSWkiCTdMfQaUf2Nsojo-22" target="RSWkiCTdMfQaUf2Nsojo-55">
          <mxGeometry relative="1" as="geometry">
            <Array as="points">
              <mxPoint x="165" y="418" />
            </Array>
          </mxGeometry>
        </mxCell>
        <mxCell id="RSWkiCTdMfQaUf2Nsojo-22" value="" style="rounded=0;whiteSpace=wrap;html=1;" vertex="1" parent="1">
          <mxGeometry x="210" y="290" width="310" height="230" as="geometry" />
        </mxCell>
        <mxCell id="RSWkiCTdMfQaUf2Nsojo-20" value="&lt;div&gt;State Encoding&lt;/div&gt;" style="rounded=1;whiteSpace=wrap;html=1;" vertex="1" parent="1">
          <mxGeometry x="303.12" y="305" width="120" height="60" as="geometry" />
        </mxCell>
        <mxCell id="RSWkiCTdMfQaUf2Nsojo-5" value="&lt;div&gt;Tactic/Argument Selection&lt;/div&gt;" style="rounded=1;whiteSpace=wrap;html=1;" vertex="1" parent="1">
          <mxGeometry x="383.12" y="405" width="120" height="60" as="geometry" />
        </mxCell>
        <mxCell id="RSWkiCTdMfQaUf2Nsojo-35" style="edgeStyle=orthogonalEdgeStyle;rounded=0;orthogonalLoop=1;jettySize=auto;html=1;entryX=0.5;entryY=0;entryDx=0;entryDy=0;" edge="1" parent="1" source="RSWkiCTdMfQaUf2Nsojo-20" target="RSWkiCTdMfQaUf2Nsojo-5">
          <mxGeometry relative="1" as="geometry" />
        </mxCell>
        <mxCell id="RSWkiCTdMfQaUf2Nsojo-12" style="edgeStyle=orthogonalEdgeStyle;rounded=0;orthogonalLoop=1;jettySize=auto;html=1;entryX=0;entryY=0.5;entryDx=0;entryDy=0;" edge="1" parent="1" source="RSWkiCTdMfQaUf2Nsojo-6" target="RSWkiCTdMfQaUf2Nsojo-5">
          <mxGeometry relative="1" as="geometry" />
        </mxCell>
        <mxCell id="RSWkiCTdMfQaUf2Nsojo-6" value="Goal Selection" style="rounded=1;whiteSpace=wrap;html=1;" vertex="1" parent="1">
          <mxGeometry x="228.12" y="405" width="120" height="60" as="geometry" />
        </mxCell>
        <mxCell id="RSWkiCTdMfQaUf2Nsojo-34" style="edgeStyle=orthogonalEdgeStyle;rounded=0;orthogonalLoop=1;jettySize=auto;html=1;entryX=0.5;entryY=0;entryDx=0;entryDy=0;" edge="1" parent="1" source="RSWkiCTdMfQaUf2Nsojo-20" target="RSWkiCTdMfQaUf2Nsojo-6">
          <mxGeometry relative="1" as="geometry" />
        </mxCell>
        <mxCell id="RSWkiCTdMfQaUf2Nsojo-38" value="Action (goal, tactic)" style="rounded=1;whiteSpace=wrap;html=1;" vertex="1" parent="1">
          <mxGeometry x="303.12" y="540" width="120" height="60" as="geometry" />
        </mxCell>
        <mxCell id="RSWkiCTdMfQaUf2Nsojo-40" style="edgeStyle=orthogonalEdgeStyle;rounded=0;orthogonalLoop=1;jettySize=auto;html=1;entryX=0.5;entryY=0;entryDx=0;entryDy=0;" edge="1" parent="1" source="RSWkiCTdMfQaUf2Nsojo-5" target="RSWkiCTdMfQaUf2Nsojo-38">
          <mxGeometry relative="1" as="geometry" />
        </mxCell>
        <mxCell id="RSWkiCTdMfQaUf2Nsojo-39" style="edgeStyle=orthogonalEdgeStyle;rounded=0;orthogonalLoop=1;jettySize=auto;html=1;entryX=0.5;entryY=0;entryDx=0;entryDy=0;" edge="1" parent="1" source="RSWkiCTdMfQaUf2Nsojo-6" target="RSWkiCTdMfQaUf2Nsojo-38">
          <mxGeometry relative="1" as="geometry" />
        </mxCell>
        <mxCell id="RSWkiCTdMfQaUf2Nsojo-66" value="&lt;b&gt;Model&lt;/b&gt;" style="text;html=1;strokeColor=none;fillColor=none;align=center;verticalAlign=middle;whiteSpace=wrap;rounded=0;" vertex="1" parent="1">
          <mxGeometry x="220" y="300" width="60" height="30" as="geometry" />
        </mxCell>
        <mxCell id="RSWkiCTdMfQaUf2Nsojo-47" style="edgeStyle=orthogonalEdgeStyle;rounded=0;orthogonalLoop=1;jettySize=auto;html=1;entryX=0.551;entryY=-0.022;entryDx=0;entryDy=0;entryPerimeter=0;" edge="1" parent="1" source="RSWkiCTdMfQaUf2Nsojo-4" target="RSWkiCTdMfQaUf2Nsojo-20">
          <mxGeometry relative="1" as="geometry">
            <Array as="points">
              <mxPoint x="369" y="270" />
              <mxPoint x="369" y="270" />
            </Array>
          </mxGeometry>
        </mxCell>
        <mxCell id="RSWkiCTdMfQaUf2Nsojo-74" style="edgeStyle=orthogonalEdgeStyle;rounded=0;orthogonalLoop=1;jettySize=auto;html=1;entryX=0.5;entryY=1;entryDx=0;entryDy=0;entryPerimeter=0;" edge="1" parent="1" source="RSWkiCTdMfQaUf2Nsojo-73" target="RSWkiCTdMfQaUf2Nsojo-55">
          <mxGeometry relative="1" as="geometry" />
        </mxCell>
        <mxCell id="RSWkiCTdMfQaUf2Nsojo-73" value="External Pre-training Data" style="rounded=1;whiteSpace=wrap;html=1;" vertex="1" parent="1">
          <mxGeometry x="60" y="540" width="120" height="60" as="geometry" />
        </mxCell>
      </root>
    </mxGraphModel>
  </diagram>
</mxfile>
